<?xml version="1.0" encoding="UTF-8" standalone="no"?>
<!-- Created with Inkscape (http://www.inkscape.org/) -->

<svg
   xmlns:dc="http://purl.org/dc/elements/1.1/"
   xmlns:cc="http://creativecommons.org/ns#"
   xmlns:rdf="http://www.w3.org/1999/02/22-rdf-syntax-ns#"
   xmlns:svg="http://www.w3.org/2000/svg"
   xmlns="http://www.w3.org/2000/svg"
   xmlns:sodipodi="http://sodipodi.sourceforge.net/DTD/sodipodi-0.dtd"
   xmlns:inkscape="http://www.inkscape.org/namespaces/inkscape"
   version="1.1"
   id="svg4518"
   xml:space="preserve"
   width="683.82898"
   height="115.548"
   viewBox="0 0 683.82898 115.54799"
   sodipodi:docname="infinity logo new.svg"
   inkscape:version="0.92.3 (2405546, 2018-03-11)"
   inkscape:export-filename="c:\Users\adish\Desktop\infinity logo new.png"
   inkscape:export-xdpi="287.51047"
   inkscape:export-ydpi="287.51047"><metadata
     id="metadata4524"><rdf:RDF><cc:Work
         rdf:about=""><dc:format>image/svg+xml</dc:format><dc:type
           rdf:resource="http://purl.org/dc/dcmitype/StillImage" /><dc:title></dc:title></cc:Work></rdf:RDF></metadata><defs
     id="defs4522"><linearGradient
       x1="0"
       y1="0"
       x2="1"
       y2="0"
       gradientUnits="userSpaceOnUse"
       gradientTransform="matrix(182.94318,0,0,-182.94318,35.999985,490.17941)"
       spreadMethod="pad"
       id="linearGradient4558"><stop
         style="stop-opacity:1;stop-color:#ca098d"
         offset="0"
         id="stop4540" /><stop
         style="stop-opacity:1;stop-color:#ca098d"
         offset="0.00483516"
         id="stop4542" /><stop
         style="stop-opacity:1;stop-color:#ca098d"
         offset="0.192308"
         id="stop4544" /><stop
         style="stop-opacity:1;stop-color:#ab4aab"
         offset="0.406484"
         id="stop4546" /><stop
         style="stop-opacity:1;stop-color:#1c61b6"
         offset="0.602363"
         id="stop4548" /><stop
         style="stop-opacity:1;stop-color:#1c61b6"
         offset="0.697802"
         id="stop4550" /><stop
         style="stop-opacity:1;stop-color:#02a7ea"
         offset="0.994505"
         id="stop4552" /><stop
         style="stop-opacity:1;stop-color:#02a7ea"
         offset="0.99491163"
         id="stop4554" /><stop
         style="stop-opacity:1;stop-color:#02a7ea"
         offset="1"
         id="stop4556" /></linearGradient><clipPath
       clipPathUnits="userSpaceOnUse"
       id="clipPath4568"><path
         d="M 0,0 H 595.276 V 841.89 H 0 Z"
         id="path4566"
         inkscape:connector-curvature="0" /></clipPath></defs><sodipodi:namedview
     pagecolor="#ffffff"
     bordercolor="#666666"
     borderopacity="1"
     objecttolerance="10"
     gridtolerance="10"
     guidetolerance="10"
     inkscape:pageopacity="0"
     inkscape:pageshadow="2"
     inkscape:window-width="1920"
     inkscape:window-height="1137"
     id="namedview4520"
     showgrid="false"
     inkscape:zoom="1.6932464"
     inkscape:cx="355.58523"
     inkscape:cy="15.249586"
     inkscape:window-x="-8"
     inkscape:window-y="311"
     inkscape:window-maximized="1"
     inkscape:current-layer="g4526" /><g
     id="g4526"
     inkscape:groupmode="layer"
     inkscape:label="infinity logo new"
     transform="matrix(1.3333333,0,0,-1.3333333,-47.999253,768.05865)"><g
       id="g4528"><g
         id="g4530"><g
           id="g4536"><g
             id="g4538"><path
               d="m 149.399,566.899 c -6.654,-5.614 -17.257,-16.981 -17.257,-16.981 v 0 l 12.475,-11.782 c 0,0 15.724,22.265 32.229,21.139 v 0 c 13.868,-0.947 25.991,-12.022 25.991,-25.591 v 0 c 0,-13.569 -8.351,-26.391 -26.684,-26.391 v 0 c 0,0 -11.575,-1.318 -24.05,13.446 v 0 l -44.497,44.497 c 0,0 -10.501,11.54 -32.126,10.5 v 0 C 53.856,574.697 34.622,554.215 36.077,530.719 v 0 c 1.456,-23.495 21.002,-39.922 39.299,-40.338 v 0 c 18.298,-0.416 28.487,7.07 34.101,13.1 v 0 l 7.485,-6.654 V 522.61 H 91.595 l 6.238,-6.654 c 0,0 -3.951,-8.524 -19.13,-8.524 v 0 c -15.178,0 -26.199,12.475 -25.159,26.615 v 0 c 1.039,14.138 10.604,24.535 26.199,24.951 v 0 c 0,0 12.476,1.247 25.783,-15.387 v 0 l 39.091,-39.507 c 0,0 12.475,-14.106 33.269,-13.923 v 0 c 22.247,0.197 42.626,22.865 40.962,44.489 v 0 c -1.664,21.624 -15.179,36.18 -31.19,40.13 v 0 c -3.513,0.867 -7.007,1.244 -10.39,1.244 v 0 c -12.034,0 -22.675,-4.763 -27.869,-9.145"
               style="fill:url(#linearGradient4558);stroke:none"
               id="path4560"
               inkscape:connector-curvature="0" /></g></g></g></g><g
       id="g4562"><g
         id="g4564"
         clip-path="url(#clipPath4568)"><g
           id="g4570"
           transform="translate(245.1574,495.309)"><path
             d="M 0,0 H 2.516 C 2.315,0.862 2.214,1.522 2.214,1.98 c 0,0.724 0.128,1.664 0.385,2.819 l 0.811,3.63 c 0.229,1.027 0.344,1.93 0.344,2.709 0,1.026 -0.404,1.861 -1.21,2.503 -1.054,0.861 -2.484,1.292 -4.29,1.292 -1.696,0 -3.101,-0.385 -4.215,-1.155 -1.114,-0.77 -1.927,-1.879 -2.441,-3.328 l 2.517,-0.22 c 0.302,0.853 0.786,1.511 1.45,1.974 0.665,0.462 1.52,0.694 2.565,0.694 1.109,0 1.953,-0.229 2.53,-0.688 C 1.082,11.88 1.293,11.427 1.293,10.849 1.293,10.4 1.196,9.836 1.004,9.158 0.325,8.892 -0.795,8.727 -2.358,8.663 -3.921,8.599 -4.982,8.512 -5.541,8.402 -6.431,8.237 -7.182,7.964 -7.797,7.583 -8.411,7.203 -8.903,6.699 -9.275,6.071 -9.646,5.443 -9.832,4.721 -9.832,3.905 c 0,-1.237 0.413,-2.253 1.238,-3.046 0.825,-0.793 1.911,-1.189 3.259,-1.189 0.907,0 1.76,0.172 2.557,0.516 0.798,0.343 1.627,0.887 2.489,1.629 C -0.234,1.082 -0.138,0.477 0,0 M -0.399,4.07 C -0.839,3.291 -1.439,2.684 -2.2,2.248 -2.961,1.813 -3.754,1.595 -4.579,1.595 c -0.889,0 -1.574,0.225 -2.056,0.674 -0.481,0.449 -0.722,1.022 -0.722,1.719 0,0.522 0.152,0.999 0.454,1.43 0.303,0.43 0.752,0.744 1.348,0.942 0.596,0.197 1.618,0.359 3.066,0.488 0.935,0.082 1.602,0.16 2.001,0.234 C -0.089,7.155 0.284,7.26 0.633,7.398 0.385,5.958 0.041,4.849 -0.399,4.07 M 12.857,0 h 3.947 l 1.402,6.71 c 0.248,1.164 0.426,1.912 0.537,2.242 0.247,0.705 0.543,1.283 0.886,1.732 0.344,0.449 0.745,0.802 1.204,1.059 0.458,0.256 0.902,0.385 1.333,0.385 0.459,0 0.819,-0.124 1.08,-0.371 0.261,-0.248 0.392,-0.564 0.392,-0.949 0,-0.303 -0.106,-0.963 -0.317,-1.98 L 21.479,0 h 3.946 l 1.389,6.628 c 0.394,1.888 0.871,3.204 1.43,3.946 0.77,1.036 1.645,1.554 2.626,1.554 0.486,0 0.851,-0.117 1.094,-0.351 0.242,-0.233 0.364,-0.552 0.364,-0.955 0,-0.147 -0.115,-0.78 -0.344,-1.898 L 30.114,0 h 3.947 l 1.87,8.924 c 0.256,1.238 0.385,2.108 0.385,2.613 0,1.026 -0.326,1.851 -0.977,2.475 -0.651,0.623 -1.558,0.935 -2.722,0.935 -1.018,0 -1.999,-0.248 -2.943,-0.743 -0.944,-0.495 -1.668,-1.109 -2.172,-1.842 -0.165,0.806 -0.546,1.439 -1.142,1.897 -0.596,0.459 -1.444,0.688 -2.544,0.688 -1.595,0 -3.116,-0.706 -4.565,-2.118 l 0.372,1.774 H 15.91 Z M 44.14,11.695 c 0.408,0.289 0.965,0.433 1.671,0.433 0.669,0 1.173,-0.142 1.512,-0.426 0.339,-0.285 0.509,-0.638 0.509,-1.059 0,-0.33 -0.083,-0.77 -0.248,-1.32 C 46.952,9.103 45.696,8.915 43.817,8.759 41.589,8.585 40.042,8.081 39.176,7.247 38.31,6.412 37.877,5.298 37.877,3.905 c 0,-1.247 0.394,-2.267 1.182,-3.059 0.788,-0.793 1.788,-1.19 2.998,-1.19 0.761,0 1.517,0.172 2.269,0.516 0.751,0.344 1.416,0.836 1.993,1.478 C 46.356,1.082 46.452,0.532 46.608,0 h 3.837 c -0.22,0.761 -0.33,1.453 -0.33,2.076 0,0.697 0.192,1.916 0.577,3.658 0.468,2.108 0.74,3.41 0.818,3.905 0.078,0.495 0.117,0.963 0.117,1.403 0,1.09 -0.449,2.014 -1.347,2.77 -0.899,0.757 -2.288,1.135 -4.167,1.135 -1.806,0 -3.257,-0.367 -4.352,-1.1 -1.095,-0.734 -1.863,-1.751 -2.303,-3.053 l 3.85,-0.33 c 0.147,0.532 0.424,0.942 0.832,1.231 M 46.952,6.284 C 46.75,5.321 46.519,4.613 46.258,4.16 45.996,3.706 45.602,3.335 45.075,3.046 44.548,2.757 43.986,2.613 43.391,2.613 c -0.541,0 -0.977,0.158 -1.307,0.474 -0.33,0.316 -0.495,0.703 -0.495,1.162 0,0.559 0.216,1.004 0.647,1.334 0.605,0.458 1.897,0.806 3.877,1.045 0.394,0.055 0.71,0.114 0.949,0.178 z m 9.069,5.39 -1.224,-5.871 C 54.458,4.18 54.288,3.144 54.288,2.695 c 0,-0.953 0.316,-1.698 0.949,-2.234 0.632,-0.537 1.645,-0.805 3.039,-0.805 0.715,0 1.411,0.069 2.09,0.206 l 0.619,2.929 C 60.288,2.727 59.852,2.695 59.678,2.695 c -0.504,0 -0.852,0.085 -1.045,0.254 -0.192,0.17 -0.288,0.406 -0.288,0.709 0,0.155 0.114,0.788 0.343,1.897 l 1.279,6.119 h 2.42 l 0.605,2.929 h -2.406 l 1.059,5.06 -4.524,-2.722 -0.482,-2.338 H 54.714 L 54.109,11.674 Z M 61.996,0 h 3.946 l 0.962,4.579 c 0.386,1.861 0.775,3.22 1.169,4.077 0.394,0.857 0.942,1.542 1.643,2.056 0.702,0.513 1.391,0.77 2.07,0.77 0.403,0 0.784,-0.065 1.141,-0.193 l 1.513,3.232 c -0.651,0.284 -1.261,0.426 -1.829,0.426 -1.604,0 -3.094,-1.059 -4.469,-3.177 l 0.591,2.833 h -3.685 z m 14.362,16.583 h 3.947 l 0.742,3.575 H 77.101 Z M 72.893,0 h 3.947 l 3.052,14.603 h -3.946 z m 16.37,0 h 4.194 l -3.685,7.027 6.779,7.576 h -4.799 l -3.699,-4.166 -2.131,4.166 H 81.728 L 85.441,7.48 78.689,0 h 4.84 l 3.631,4.098 z m 22.242,2.516 c -0.738,-0.614 -1.51,-0.921 -2.317,-0.921 -0.806,0 -1.485,0.312 -2.035,0.935 -0.55,0.623 -0.825,1.558 -0.825,2.805 0,1.192 0.209,2.432 0.626,3.72 0.417,1.288 0.992,2.248 1.726,2.88 0.733,0.633 1.599,0.949 2.598,0.949 0.862,0 1.556,-0.261 2.084,-0.784 0.527,-0.522 0.795,-1.246 0.804,-2.172 l 2.448,0.165 c 0,1.457 -0.459,2.628 -1.375,3.513 -0.917,0.885 -2.159,1.327 -3.727,1.327 -1.512,0 -2.858,-0.401 -4.036,-1.203 -1.178,-0.802 -2.083,-1.973 -2.715,-3.513 -0.633,-1.54 -0.949,-3.108 -0.949,-4.703 0,-1.843 0.493,-3.277 1.478,-4.304 0.985,-1.027 2.271,-1.54 3.857,-1.54 1.467,0 2.775,0.442 3.926,1.327 1.15,0.884 2.037,2.239 2.661,4.063 l -2.489,0.261 c -0.422,-1.256 -1.002,-2.191 -1.74,-2.805 m 6.635,-0.055 c 0.491,-0.889 1.201,-1.576 2.132,-2.062 0.93,-0.486 1.964,-0.729 3.1,-0.729 1.384,0 2.702,0.385 3.954,1.155 1.251,0.77 2.216,1.877 2.894,3.321 0.678,1.444 1.018,3.004 1.018,4.682 0,1.87 -0.539,3.355 -1.616,4.455 -1.077,1.1 -2.496,1.65 -4.256,1.65 -2.246,0 -4.061,-0.77 -5.445,-2.31 -1.678,-1.87 -2.516,-4.231 -2.516,-7.082 0,-1.164 0.245,-2.191 0.735,-3.08 m 2.118,5.865 c 0.243,0.949 0.623,1.781 1.141,2.496 0.518,0.715 1.098,1.258 1.74,1.629 0.641,0.371 1.352,0.557 2.131,0.557 1.008,0 1.845,-0.364 2.509,-1.093 0.665,-0.729 0.997,-1.753 0.997,-3.073 0,-0.835 -0.142,-1.705 -0.426,-2.613 -0.192,-0.651 -0.447,-1.258 -0.763,-1.822 -0.316,-0.564 -0.699,-1.066 -1.148,-1.506 -0.45,-0.44 -0.935,-0.768 -1.458,-0.983 -0.522,-0.215 -1.05,-0.323 -1.581,-0.323 -1.018,0 -1.856,0.355 -2.517,1.066 -0.66,0.71 -0.99,1.753 -0.99,3.128 0,0.742 0.122,1.588 0.365,2.537 M 134.82,0 l 1.444,6.903 c 0.311,1.485 0.71,2.628 1.196,3.43 0.486,0.803 1.116,1.428 1.891,1.877 0.774,0.449 1.514,0.674 2.22,0.674 0.477,0 0.864,-0.147 1.162,-0.44 0.298,-0.293 0.447,-0.678 0.447,-1.155 0,-0.284 -0.073,-0.761 -0.22,-1.43 L 140.898,0 h 2.488 l 1.486,7.082 c 0.32,1.512 0.694,2.633 1.12,3.362 0.426,0.728 1.025,1.317 1.795,1.766 0.77,0.449 1.526,0.674 2.268,0.674 0.551,0 0.977,-0.137 1.279,-0.412 0.303,-0.275 0.454,-0.651 0.454,-1.128 0,-0.339 -0.087,-0.903 -0.261,-1.691 L 149.519,0 h 2.489 l 1.966,9.405 c 0.211,1.036 0.317,1.779 0.317,2.228 0,1.045 -0.305,1.856 -0.915,2.434 -0.61,0.577 -1.524,0.866 -2.743,0.866 -0.908,0 -1.772,-0.227 -2.592,-0.681 -0.82,-0.453 -1.602,-1.139 -2.344,-2.055 -0.193,0.861 -0.594,1.533 -1.204,2.014 -0.609,0.481 -1.368,0.722 -2.275,0.722 -0.853,0 -1.643,-0.197 -2.372,-0.591 -0.729,-0.394 -1.556,-1.109 -2.482,-2.145 l 0.509,2.406 h -2.489 L 132.331,0 Z m 21.967,-5.596 1.65,7.934 c 0.962,-1.779 2.319,-2.668 4.07,-2.668 0.788,0 1.558,0.179 2.31,0.536 0.751,0.358 1.494,0.917 2.228,1.678 0.733,0.761 1.352,1.767 1.856,3.018 0.504,1.251 0.756,2.638 0.756,4.16 0,1.888 -0.458,3.339 -1.375,4.352 -0.917,1.012 -2.072,1.519 -3.465,1.519 -0.752,0 -1.464,-0.172 -2.138,-0.516 -0.674,-0.343 -1.437,-0.96 -2.29,-1.849 l 0.427,2.035 h -2.297 l -4.221,-20.199 z m 2.887,14.08 c 0.303,0.963 0.685,1.776 1.148,2.441 0.463,0.664 0.965,1.164 1.506,1.499 0.541,0.334 1.128,0.501 1.76,0.501 0.88,0 1.616,-0.336 2.207,-1.01 0.591,-0.674 0.887,-1.63 0.887,-2.867 0,-1.678 -0.44,-3.321 -1.32,-4.93 -0.88,-1.609 -2.035,-2.413 -3.465,-2.413 -0.688,0 -1.293,0.183 -1.815,0.55 -0.523,0.367 -0.899,0.848 -1.128,1.444 -0.156,0.421 -0.234,1.178 -0.234,2.269 0,0.715 0.152,1.554 0.454,2.516 M 181.036,0 h 2.516 c -0.201,0.862 -0.302,1.522 -0.302,1.98 0,0.724 0.128,1.664 0.385,2.819 l 0.811,3.63 c 0.229,1.027 0.344,1.93 0.344,2.709 0,1.026 -0.404,1.861 -1.21,2.503 -1.054,0.861 -2.485,1.292 -4.29,1.292 -1.696,0 -3.101,-0.385 -4.215,-1.155 -1.114,-0.77 -1.927,-1.879 -2.441,-3.328 l 2.517,-0.22 c 0.302,0.853 0.786,1.511 1.45,1.974 0.665,0.462 1.52,0.694 2.565,0.694 1.109,0 1.952,-0.229 2.53,-0.688 0.422,-0.33 0.633,-0.783 0.633,-1.361 0,-0.449 -0.097,-1.013 -0.289,-1.691 -0.679,-0.266 -1.799,-0.431 -3.362,-0.495 -1.563,-0.064 -2.624,-0.151 -3.184,-0.261 -0.889,-0.165 -1.641,-0.438 -2.255,-0.819 -0.614,-0.38 -1.107,-0.884 -1.478,-1.512 -0.371,-0.628 -0.557,-1.35 -0.557,-2.166 0,-1.237 0.413,-2.253 1.238,-3.046 0.825,-0.793 1.911,-1.189 3.259,-1.189 0.907,0 1.76,0.172 2.557,0.516 0.798,0.343 1.627,0.887 2.489,1.629 0.055,-0.733 0.151,-1.338 0.289,-1.815 m -0.399,4.07 c -0.44,-0.779 -1.04,-1.386 -1.801,-1.822 -0.761,-0.435 -1.554,-0.653 -2.379,-0.653 -0.889,0 -1.574,0.225 -2.056,0.674 -0.481,0.449 -0.722,1.022 -0.722,1.719 0,0.522 0.152,0.999 0.454,1.43 0.303,0.43 0.752,0.744 1.348,0.942 0.596,0.197 1.618,0.359 3.066,0.488 0.935,0.082 1.602,0.16 2.001,0.234 0.399,0.073 0.772,0.178 1.12,0.316 -0.247,-1.44 -0.591,-2.549 -1.031,-3.328 m 8.134,-4.07 1.416,6.793 c 0.468,2.227 1.199,3.799 2.193,4.716 0.995,0.917 2.129,1.375 3.404,1.375 0.632,0 1.116,-0.151 1.45,-0.454 0.335,-0.302 0.502,-0.696 0.502,-1.182 0,-0.431 -0.096,-1.096 -0.289,-1.994 L 195.509,0 h 2.489 l 1.856,8.842 c 0.238,1.164 0.357,2.016 0.357,2.557 0,1.073 -0.337,1.93 -1.01,2.572 -0.674,0.641 -1.602,0.962 -2.785,0.962 -0.889,0 -1.76,-0.229 -2.612,-0.687 -0.853,-0.459 -1.77,-1.188 -2.751,-2.187 l 0.537,2.544 h -2.255 L 186.282,0 Z m 13.648,-5.926 c 0.907,0 1.709,0.261 2.406,0.783 0.696,0.523 1.494,1.591 2.392,3.204 l 9.31,16.542 h -2.599 L 207.396,2.846 c -0.156,1.458 -0.344,2.915 -0.564,4.373 l -1.1,7.384 h -2.447 l 2.434,-14.644 -0.798,-1.43 c -0.477,-0.834 -0.917,-1.403 -1.32,-1.705 -0.312,-0.229 -0.72,-0.344 -1.224,-0.344 -0.486,0 -0.985,0.073 -1.499,0.22 l -0.151,-2.338 c 0.55,-0.192 1.114,-0.288 1.692,-0.288"
             style="fill:#3b276f;fill-opacity:1;fill-rule:nonzero;stroke:none"
             id="path4572"
             inkscape:connector-curvature="0" /></g><g
           id="g4574"
           transform="translate(500.1872,532.9769)"><path
             d="m 0,0 c -1.748,2.579 -2.909,4.547 -3.483,5.904 2.2,0.415 3.938,1.203 5.216,2.365 1.277,1.161 1.915,2.548 1.915,4.161 0,2.311 -0.874,4.071 -2.621,5.281 -1.54,1.063 -3.545,1.595 -6.014,1.595 h -6.343 c -1.883,0 -2.824,-1.027 -2.824,-3.08 V -6.417 h 3.612 V 5.665 h 4.272 c 0.586,-1.797 1.687,-4.107 3.3,-6.93 1.515,-2.64 2.67,-4.358 3.465,-5.152 H 5.042 C 3.587,-4.938 1.907,-2.799 0,0 M -1.219,9.103 C -2.191,8.29 -3.483,7.884 -5.097,7.884 h -5.445 v 8.672 c 0,0.354 0.159,0.531 0.477,0.531 h 4.693 c 1.711,0 3.074,-0.437 4.089,-1.311 1.014,-0.874 1.521,-2.038 1.521,-3.492 0,-1.308 -0.485,-2.368 -1.457,-3.181 M 22.151,-1.98 c 1.638,2.334 2.524,4.583 2.659,6.747 h -3.374 c -0.183,-1.773 -0.532,-3.349 -1.045,-4.73 -0.966,1.038 -2.218,2.621 -3.758,4.748 -0.99,1.381 -1.981,2.769 -2.97,4.162 2.957,1.65 4.436,3.764 4.436,6.344 0,1.112 -0.421,2.047 -1.265,2.805 -0.929,0.831 -2.188,1.246 -3.777,1.246 -1.76,0 -3.11,-0.525 -4.051,-1.576 -0.77,-0.856 -1.155,-1.883 -1.155,-3.08 0,-1.406 0.886,-3.362 2.658,-5.867 C 6.084,6.105 3.872,3.117 3.872,-0.147 c 0,-1.772 0.727,-3.367 2.182,-4.785 1.589,-1.564 3.563,-2.347 5.922,-2.347 3.422,0 6.087,1.088 7.993,3.264 0.929,-1.223 1.559,-2.035 1.889,-2.439 h 4.492 c -1.223,1.198 -2.622,2.689 -4.199,4.474 m -9.424,12.192 c -1.222,1.711 -1.833,3.141 -1.833,4.29 0,0.88 0.235,1.595 0.706,2.145 0.47,0.55 1.097,0.825 1.879,0.825 0.844,0 1.479,-0.348 1.907,-1.045 0.305,-0.501 0.458,-1.045 0.458,-1.631 0,-1.761 -1.039,-3.289 -3.117,-4.584 m 3.411,-14.466 c -1.088,-0.562 -2.189,-0.843 -3.301,-0.843 -1.564,0 -2.884,0.568 -3.96,1.705 -0.965,1.015 -1.448,2.133 -1.448,3.355 0,3.215 1.289,5.696 3.868,7.444 1.1,-1.54 2.2,-3.074 3.301,-4.602 1.478,-2.053 2.792,-3.765 3.941,-5.133 -0.586,-0.77 -1.387,-1.412 -2.401,-1.926 m 29.063,19.838 c -2.384,2.481 -5.476,3.722 -9.277,3.722 H 30.02 c -2.176,0 -3.263,-1.027 -3.263,-3.08 V -3.337 c 0,-2.053 1.087,-3.08 3.263,-3.08 h 5.904 c 3.801,0 6.893,1.24 9.277,3.722 2.322,2.408 3.483,5.445 3.483,9.112 0,3.691 -1.161,6.747 -3.483,9.167 m -3.2,-16.693 c -1.851,-2.133 -3.963,-3.2 -6.334,-3.2 h -4.364 c -0.623,0 -0.935,0.3 -0.935,0.899 v 19.672 c 0,0.624 0.312,0.935 0.935,0.935 h 4.364 c 2.371,0 4.473,-1.057 6.307,-3.171 1.87,-2.164 2.805,-4.7 2.805,-7.609 0,-2.885 -0.926,-5.394 -2.778,-7.526"
             style="fill:#656263;fill-opacity:1;fill-rule:nonzero;stroke:none"
             id="path4576"
             inkscape:connector-curvature="0" /></g><g
           id="g4578"
           transform="translate(398.5367,530.8748)"><path
             d="m 0,0 h -10.882 c -0.411,0 -0.616,0.213 -0.616,0.64 v 28.308 h -6.473 v -29.28 c 0,-2.655 1.217,-3.983 3.651,-3.983 H 0.047 C 0.11,-3.73 0.142,-3.067 0.142,-2.323 0.142,-1.249 0.095,-0.474 0,0 m 23.94,2.537 v 9.127 c 0,6.148 -3.351,9.223 -10.052,9.223 -4.283,0 -7.911,-0.988 -10.882,-2.964 0.269,-1.375 0.806,-2.576 1.612,-3.603 2.102,1.659 4.529,2.489 7.279,2.489 3.382,0 5.112,-0.957 5.192,-2.869 0.047,-1.09 -1.36,-2.047 -4.22,-2.868 C 5.551,9.001 1.892,5.524 1.892,0.64 c 0,-1.581 0.584,-2.94 1.754,-4.078 1.201,-1.201 2.727,-1.802 4.576,-1.802 2.054,0 3.619,0.198 4.694,0.593 1.833,0.68 3.469,2.087 4.908,4.22 0,-1.28 0.276,-2.576 0.829,-3.888 h 6.544 C 24.359,-2.007 23.94,0.276 23.94,2.537 M 15.714,0.83 c -1.328,-1.391 -2.877,-2.087 -4.647,-2.087 -1.897,0 -2.845,1.004 -2.845,3.011 0,2.814 1.407,4.695 4.22,5.643 1.375,0.458 3.169,1.343 5.382,2.655 V 6.164 c 0,-2.102 -0.704,-3.88 -2.11,-5.334 m 34.775,16.169 c -2.119,2.102 -4.718,3.153 -7.8,3.153 -2.735,0 -4.979,-1.146 -6.733,-3.438 V 28.948 H 29.578 V 2.442 c 0,-2.972 -0.324,-5.224 -0.972,-6.757 h 6.709 c 0.427,1.264 0.641,2.363 0.641,3.296 1.39,-2.751 3.635,-4.126 6.733,-4.126 3.066,0 5.681,1.17 7.847,3.509 2.276,2.466 3.414,5.619 3.414,9.46 0,3.809 -1.154,6.867 -3.461,9.175 m -4.695,-15.6 c -1.106,-1.707 -2.497,-2.561 -4.172,-2.561 -1.692,0 -3.094,0.854 -4.208,2.561 -1.115,1.707 -1.672,3.848 -1.672,6.425 0,2.56 0.546,4.591 1.636,6.093 1.091,1.501 2.505,2.252 4.244,2.252 1.722,0 3.125,-0.751 4.208,-2.252 1.082,-1.502 1.624,-3.533 1.624,-6.093 0,-2.577 -0.553,-4.718 -1.66,-6.425 m 29.014,4.836 c -1.659,1.423 -3.967,2.616 -6.922,3.58 -2.719,0.885 -4.078,2.244 -4.078,4.078 0,0.885 0.324,1.612 0.972,2.181 0.711,0.616 1.715,0.925 3.011,0.925 2.655,0 5.05,-0.909 7.183,-2.727 0.854,1.17 1.391,2.371 1.612,3.604 -2.37,2.07 -5.753,3.106 -10.147,3.106 -2.655,0 -4.899,-0.641 -6.733,-1.921 -1.896,-1.343 -2.845,-3.066 -2.845,-5.168 0,-3.035 2.885,-5.493 8.654,-7.373 3.161,-1.043 4.741,-2.569 4.741,-4.576 0,-2.166 -1.469,-3.248 -4.409,-3.248 -3.098,0 -5.706,0.893 -7.824,2.679 -0.838,-1.154 -1.367,-2.339 -1.588,-3.556 2.355,-2.071 5.958,-3.106 10.811,-3.106 2.971,0 5.373,0.66 7.207,1.98 1.833,1.319 2.75,3.07 2.75,5.251 0,1.486 -0.798,2.916 -2.395,4.291"
             style="fill:#1c61b6;fill-opacity:1;fill-rule:nonzero;stroke:none"
             id="path4580"
             inkscape:connector-curvature="0" /></g><path
           d="m 242.102,559.822 h -4.718 V 526.56 h 4.718 z m 27.615,-17.781 c 0,6.354 -2.75,9.531 -8.251,9.531 -3.983,0 -6.946,-1.28 -8.89,-3.841 v 3.201 h -4.6 V 526.56 h 4.6 v 17.971 c 0.553,0.995 1.446,1.888 2.679,2.679 1.438,0.932 2.892,1.398 4.362,1.398 3.73,0 5.595,-2.023 5.595,-6.069 V 526.56 h 4.505 z m 13.082,18.611 c -2.118,0 -3.817,-0.656 -5.097,-1.968 -1.36,-1.407 -2.039,-3.39 -2.039,-5.95 V 526.56 h 4.552 v 17.188 h 5.192 c 0.632,1.881 0.94,2.9 0.924,3.059 h -6.116 v 7.136 c 0,1.217 0.355,2.165 1.066,2.845 0.632,0.6 1.447,0.901 2.442,0.901 1.028,0 2.189,-0.491 3.485,-1.47 0.822,1.011 1.376,1.778 1.66,2.299 -1.375,1.423 -3.398,2.134 -6.069,2.134 m 13.532,-1.351 c -0.49,0.505 -1.082,0.758 -1.778,0.758 -0.711,0 -1.32,-0.253 -1.825,-0.758 -0.506,-0.506 -0.759,-1.107 -0.759,-1.802 0,-0.711 0.253,-1.32 0.759,-1.826 0.505,-0.506 1.114,-0.758 1.825,-0.758 0.696,0 1.288,0.252 1.778,0.758 0.49,0.506 0.735,1.115 0.735,1.826 0,0.695 -0.245,1.296 -0.735,1.802 m 0.546,-8.369 h -4.623 V 526.56 h 4.623 z m 28.136,-8.891 c 0,6.354 -2.75,9.531 -8.25,9.531 -3.983,0 -6.947,-1.28 -8.891,-3.841 v 3.201 h -4.599 V 526.56 h 4.599 v 17.971 c 0.553,0.995 1.447,1.888 2.679,2.679 1.438,0.932 2.893,1.398 4.363,1.398 3.73,0 5.595,-2.023 5.595,-6.069 V 526.56 h 4.504 z m 10.309,17.26 c -0.491,0.505 -1.083,0.758 -1.779,0.758 -0.711,0 -1.319,-0.253 -1.825,-0.758 -0.506,-0.506 -0.759,-1.107 -0.759,-1.802 0,-0.711 0.253,-1.32 0.759,-1.826 0.506,-0.506 1.114,-0.758 1.825,-0.758 0.696,0 1.288,0.252 1.779,0.758 0.489,0.506 0.734,1.115 0.734,1.826 0,0.695 -0.245,1.296 -0.734,1.802 m 0.545,-8.369 h -4.623 V 526.56 h 4.623 z m 17.895,-20.531 c -1.154,-1.044 -2.316,-1.565 -3.485,-1.565 -1.091,0 -1.965,0.379 -2.62,1.138 -0.656,0.759 -0.984,1.707 -0.984,2.845 v 15.054 h 5.192 c 0.743,0.933 1.185,1.952 1.328,3.059 h -6.52 v 8.89 c -1.77,-0.253 -3.288,-0.917 -4.552,-1.991 v -24.182 c 0,-5.279 2.244,-7.919 6.733,-7.919 2.845,0 4.971,0.727 6.378,2.181 -0.538,1.122 -1.028,1.952 -1.47,2.49 m 18.487,20.531 -4.647,-17.971 c -0.126,-0.474 -0.276,-0.711 -0.45,-0.711 -0.174,0 -0.332,0.221 -0.474,0.664 l -5.927,18.018 h -4.955 l 9.578,-24.372 -1.114,-3.604 c -0.317,-0.979 -0.87,-1.754 -1.66,-2.323 -0.68,-0.49 -1.375,-0.735 -2.086,-0.735 -0.791,0 -1.534,0.245 -2.229,0.735 -1.122,-1.043 -1.739,-1.691 -1.849,-1.944 1.233,-1.233 2.734,-1.849 4.504,-1.849 1.913,0 3.588,0.774 5.027,2.323 1.169,1.249 2.07,2.837 2.702,4.765 l 8.677,27.004 z"
           style="fill:#656263;fill-opacity:1;fill-rule:nonzero;stroke:none"
           id="path4582"
           inkscape:connector-curvature="0" /></g></g></g></svg>